<?xml version="1.0" standalone="no"?>
<!DOCTYPE svg PUBLIC "-//W3C//DTD SVG 20010904//EN"
 "http://www.w3.org/TR/2001/REC-SVG-20010904/DTD/svg10.dtd">
<svg version="1.0" xmlns="http://www.w3.org/2000/svg"
 width="369.000000pt" height="369.000000pt" viewBox="0 0 369.000000 369.000000"
 preserveAspectRatio="xMidYMid meet">
<metadata>
Created by potrace 1.14, written by Peter Selinger 2001-2017
</metadata>
<g transform="translate(0.000000,369.000000) scale(0.100000,-0.100000)"
fill="#000000" stroke="none">
<path d="M0 1850 l0 -830 635 0 635 0 0 105 0 105 108 1 c59 0 121 3 137 5
121 16 273 81 359 153 26 23 52 38 57 35 5 -3 16 -19 25 -35 30 -58 124 -157
197 -208 101 -69 272 -131 407 -148 84 -10 339 -10 410 1 80 12 211 52 282 86
204 97 327 243 394 467 22 73 27 112 30 233 2 80 -1 168 -7 195 -5 28 -11 59
-13 70 -9 49 -71 190 -106 242 -163 243 -464 367 -848 350 -141 -7 -162 -10
-277 -39 -146 -36 -276 -107 -368 -201 l-47 -48 -76 76 c-111 109 -250 182
-393 204 -45 7 -329 11 -805 11 l-736 0 0 -830z m2915 626 c394 -38 594 -250
593 -631 0 -423 -255 -632 -765 -628 -192 1 -326 29 -453 93 -82 41 -164 121
-209 201 l-37 68 -38 -50 c-50 -67 -69 -89 -77 -89 -17 0 -73 175 -85 265 -31
228 12 451 121 620 43 68 45 67 98 -36 l35 -66 42 50 c74 85 219 164 335 183
22 3 43 8 48 11 4 2 44 7 90 10 45 3 83 6 84 7 4 4 156 -2 218 -8z"/>
<path d="M2072 2174 c-72 -144 -89 -382 -39 -544 l14 -45 32 67 c45 97 68 206
66 313 -2 85 -27 219 -45 239 -5 4 -17 -9 -28 -30z"/>
<path d="M2345 2043 c-103 -31 -148 -95 -144 -201 6 -144 103 -208 302 -198
140 6 211 51 242 154 6 22 5 22 -75 22 -67 0 -86 -4 -109 -21 -33 -24 -132
-30 -169 -10 -40 21 -41 100 -3 121 19 10 65 14 129 11 19 0 39 -9 49 -21 15
-17 30 -20 99 -20 l82 0 -10 39 c-12 49 -49 88 -107 114 -60 27 -213 32 -286
10z"/>
<path d="M2970 2057 c-3 -3 -21 -7 -40 -10 -78 -11 -139 -58 -160 -123 -11
-32 -10 -102 2 -156 5 -22 47 -70 79 -90 39 -25 150 -41 230 -34 141 12 213
68 226 176 18 149 -71 232 -257 238 -42 2 -78 1 -80 -1z m136 -142 c27 -6 47
-53 39 -88 -9 -32 -53 -51 -119 -50 -67 2 -94 18 -102 60 -13 71 67 106 182
78z"/>
</g>
</svg>
