<?xml version="1.0" encoding="UTF-8"?>
<svg id="Calque_1" xmlns="http://www.w3.org/2000/svg" viewBox="0 0 1331.69 167">
  <path d="M125.02,5.6H0v159.12h59.1v-37.28h65.92c36.14,0,60.92-25.46,60.92-60.92S161.17,5.6,125.02,5.6ZM113.66,77.43h-54.56v-21.82h54.56c5.91,0,13.18,0,13.18,10.91s-7.27,10.91-13.18,10.91ZM295.07,3.33c-70.01,0-100.02,26.37-100.02,81.6s30.01,82.06,100.02,82.06,100.02-26.82,100.02-82.06S364.86,3.33,295.07,3.33ZM295.07,116.99c-34.78,0-40.92-15.01-40.92-32.05s5.91-31.6,40.92-31.6,40.91,15,40.91,31.6-6.14,32.05-40.91,32.05ZM505.81,63.57c-34.55-1.37-40.23-1.14-40.23-7.27s5.68-7.5,33.41-7.5,42.51,1.82,42.51,10.23h59.11c0-40.69-35.01-55.69-97.07-55.69s-97.06,15-97.06,50.01c0,37.05,27.51,48.87,99.34,51.15,37.28,1.14,42.51,2.05,42.51,8.87,0,5.91-5.23,8.18-40.23,8.18-37.51,0-44.78-5.23-44.78-12.95h-59.1c0,47.28,36.37,58.42,101.61,58.42s101.61-11.14,101.61-55.01c0-41.6-38.87-45.91-101.61-48.41ZM611.97,55.61h68.19v109.11h59.11V55.61h68.19V5.6h-195.49v50.01ZM823.4,164.72h168.21v-45.46h-109.11v-14.77h109.11v-38.64h-109.11v-14.77h109.11V5.6h-168.21v159.12ZM1193.48,66.52c0-35.46-24.78-60.92-60.92-60.92h-125.03v159.12h59.1v-37.28h34.78l22.05,37.28h70.01l-28.19-45.69c17.51-10.23,28.19-29.32,28.19-52.51ZM1121.19,77.43h-54.56v-21.82h54.56c5.91,0,13.18,0,13.18,10.91s-7.27,10.91-13.18,10.91ZM1271.22,0c-40.47,0-60.45,22.68-60.45,54.33s19.97,54.33,60.45,54.33,60.46-22.67,60.46-54.33S1311.71,0,1271.22,0ZM1271.22,88.92c-27.55,0-41.05-11.59-41.05-34.59s13.5-34.58,41.05-34.58,41.05,11.59,41.05,34.58-13.49,34.59-41.05,34.59ZM1252.57,49.49c3.79,0,6.25.61,7.09,2.86h10.79c-.88-8.32-7.44-11.67-17.88-11.67-11.23,0-17.97,3.87-17.97,13.65s6.74,13.66,17.97,13.66c10.44,0,17-3.35,17.88-11.68h-10.79c-.84,2.25-3.3,2.87-7.09,2.87-4.71,0-7.4-.97-7.4-4.85s2.69-4.84,7.4-4.84ZM1289.34,40.68c-11.23,0-17.97,3.87-17.97,13.65s6.74,13.66,17.97,13.66,17.97-3.88,17.97-13.66-6.74-13.65-17.97-13.65ZM1289.34,59.18c-4.72,0-7.4-.97-7.4-4.85s2.69-4.84,7.4-4.84,7.4.97,7.4,4.84-2.69,4.85-7.4,4.85Z" fill="white" />
</svg>