<svg width="502" height="45" viewBox="0 0 502 45" fill="none" xmlns="http://www.w3.org/2000/svg">
<path d="M-4.05312e-06 22.464C-4.05312e-06 9.984 9.92 -3.8147e-06 22.336 -3.8147e-06C28.544 -3.8147e-06 34.176 2.56 38.208 6.592C39.552 7.872 39.552 9.984 38.208 11.264C37.568 11.904 36.672 12.288 35.904 12.288C35.072 12.288 34.176 11.904 33.472 11.264C30.72 8.384 26.688 6.656 22.336 6.656C13.632 6.656 6.592 13.76 6.592 22.464C6.592 31.104 13.632 38.208 22.336 38.208C26.688 38.208 30.72 36.544 33.472 33.6C34.176 32.96 35.072 32.64 35.904 32.64C36.672 32.64 37.568 32.96 38.208 33.6C39.552 34.944 39.552 37.056 38.208 38.272C34.176 42.368 28.544 44.864 22.336 44.864C9.92 44.864 -4.05312e-06 34.944 -4.05312e-06 22.464ZM87.3565 22.464C87.3565 13.76 80.3165 6.656 71.5485 6.656C62.8445 6.656 55.8045 13.76 55.8045 22.464C55.8045 31.104 62.8445 38.208 71.5485 38.208C80.2525 38.208 87.3565 31.104 87.3565 22.464ZM49.2125 22.464C49.2125 9.984 59.1325 -3.8147e-06 71.5485 -3.8147e-06C83.9005 -3.8147e-06 94.0125 9.984 94.0125 22.464C94.0125 34.944 83.9005 44.864 71.5485 44.864C59.1325 44.864 49.2125 34.944 49.2125 22.464ZM134.375 6.656H113.127V19.2H131.559C133.351 19.2 134.824 20.544 134.824 22.528C134.824 24.256 133.351 25.792 131.559 25.792H113.127V41.6C113.127 43.456 111.527 44.864 109.799 44.864C107.943 44.864 106.535 43.456 106.535 41.6V3.328C106.407 1.472 108.007 -3.8147e-06 109.863 -3.8147e-06H134.375C136.296 -3.8147e-06 137.832 1.472 137.832 3.328C137.832 5.12 136.296 6.656 134.375 6.656ZM177.275 6.656H156.027V19.2H174.459C176.251 19.2 177.723 20.544 177.723 22.528C177.723 24.256 176.251 25.792 174.459 25.792H156.027V41.6C156.027 43.456 154.427 44.864 152.699 44.864C150.843 44.864 149.435 43.456 149.435 41.6V3.328C149.307 1.472 150.907 -3.8147e-06 152.763 -3.8147e-06H177.275C179.195 -3.8147e-06 180.731 1.472 180.731 3.328C180.731 5.12 179.195 6.656 177.275 6.656ZM195.664 -3.8147e-06H220.688C222.48 -3.8147e-06 224.08 1.472 224.08 3.328C224.08 5.12 222.48 6.656 220.688 6.656H198.992V19.2H217.808C219.6 19.2 221.136 20.544 221.136 22.528C221.136 24.256 219.6 25.792 217.808 25.792H198.992V38.208H220.688C222.48 38.208 224.08 39.744 224.08 41.6C224.08 43.456 222.48 44.928 220.688 44.928H195.664C193.808 44.928 192.336 43.456 192.336 41.472V3.328C192.336 1.408 193.808 -3.8147e-06 195.664 -3.8147e-06ZM269.967 22.464C263.759 20.224 261.199 15.04 261.647 10.176C262.159 4.928 266.511 -3.8147e-06 274.511 -3.8147e-06H290.575C292.431 -3.8147e-06 293.967 1.472 293.967 3.328C293.967 5.12 292.431 6.656 290.575 6.656H274.191C270.799 6.656 269.071 8.64 268.687 10.752C268.559 12.928 269.839 15.232 272.847 16.512L288.783 22.464C294.991 24.64 297.615 29.824 297.231 34.688C296.719 40 292.303 44.864 284.175 44.864H267.023C265.103 44.864 263.567 43.456 263.567 41.6C263.567 39.744 265.103 38.208 267.023 38.208H284.495C287.887 38.208 289.807 36.288 289.999 34.112C290.255 32 288.911 29.568 285.839 28.416L269.967 22.464ZM307.55 22.464C307.55 9.984 317.47 -3.8147e-06 329.886 -3.8147e-06C336.094 -3.8147e-06 341.726 2.56 345.758 6.592C347.102 7.872 347.102 9.984 345.758 11.264C345.118 11.904 344.222 12.288 343.454 12.288C342.622 12.288 341.726 11.904 341.022 11.264C338.27 8.384 334.238 6.656 329.886 6.656C321.182 6.656 314.142 13.76 314.142 22.464C314.142 31.104 321.182 38.208 329.886 38.208C334.238 38.208 338.27 36.544 341.022 33.6C341.726 32.96 342.622 32.64 343.454 32.64C344.222 32.64 345.118 32.96 345.758 33.6C347.102 34.944 347.102 37.056 345.758 38.272C341.726 42.368 336.094 44.864 329.886 44.864C317.47 44.864 307.55 34.944 307.55 22.464ZM377.939 6.656H365.779V22.72H377.939C382.355 22.72 385.939 19.008 385.939 14.656C385.939 10.304 382.355 6.656 377.939 6.656ZM359.123 41.536V3.328C359.123 1.472 360.595 -3.8147e-06 362.451 -3.8147e-06H377.939C385.939 -3.8147e-06 392.595 6.592 392.595 14.656C392.595 20.16 389.523 24.96 385.043 27.392L392.211 39.872C393.107 41.472 392.531 43.456 390.931 44.48C390.419 44.736 389.907 44.928 389.331 44.928C388.179 44.928 386.963 44.224 386.387 43.2L378.387 29.184C378.003 29.312 377.491 29.376 376.915 29.376H365.779V41.536C365.779 43.392 364.243 44.928 362.387 44.928C360.531 44.928 359.123 43.392 359.123 41.536ZM405.836 3.328C405.836 1.472 407.308 -3.8147e-06 409.1 -3.8147e-06C410.956 -3.8147e-06 412.492 1.472 412.492 3.328V41.6C412.492 43.392 410.956 44.864 409.1 44.864C407.308 44.864 405.836 43.392 405.836 41.6V3.328ZM444.965 6.656H433.701V22.72H444.965C449.445 22.72 453.029 19.136 453.029 14.656C453.029 10.304 449.445 6.656 444.965 6.656ZM427.173 41.6V3.328C427.173 1.472 428.581 -3.8147e-06 430.437 -3.8147e-06H444.965C453.093 -3.8147e-06 459.621 6.656 459.621 14.656C459.621 22.784 453.093 29.376 444.965 29.376H433.701V41.6C433.701 43.456 432.165 44.928 430.373 44.928C428.581 44.928 427.173 43.456 427.173 41.6ZM498.706 6.656H488.21V41.6C488.21 43.392 486.802 44.864 484.946 44.864C483.09 44.864 481.682 43.392 481.682 41.6V6.656H471.122C469.33 6.656 467.922 5.12 467.922 3.328C467.922 1.472 469.33 -3.8147e-06 471.122 -3.8147e-06H498.706C500.626 -3.8147e-06 501.97 1.472 501.97 3.328C501.97 5.12 500.626 6.656 498.706 6.656Z" fill="black"/>
</svg>
